<?xml version="1.0" encoding="utf-8"?>
<!-- Generator: Adobe Illustrator 26.0.1, SVG Export Plug-In . SVG Version: 6.00 Build 0)  -->
<svg version="1.1" id="Layer_1" xmlns="http://www.w3.org/2000/svg" xmlns:xlink="http://www.w3.org/1999/xlink" x="0px" y="0px"
	 viewBox="0 0 707.7 292.9" style="enable-background:new 0 0 707.7 292.9;" xml:space="preserve">
<style type="text/css">
	.st0{fill:#FFFFFF;}
</style>
<g id="Layer_1_00000128478031501805751600000014395309016664139184_">
	<path class="st0" d="M60,250.7c42.8-88.9,39.1-78.3,36.8-82.4c0,0-25.9,53.9-25.9,53.8c-6-3.6,1.5-17,8.8-22.8l3.4-6.9
		c-22-14.8-65.2,12.4-50.2,50.4c22.8,57.9,123.4,9.6,76.4-56.1c-11.3,29.6-7,17.4-8.8,27.6c-1.1,6.3-6,17.3-11.7,15
		c0,0,20.5-42.6,20.5-42.6c-3.1-4.3,3.4-12.8-35.2,67.3c15.7-0.1,19.3-10.5,22.2-6.9c0.7,0.9,0.6,2.2-0.2,2.9c0,0,0,0,0,0
		c-27.1,23-58.3-8.4-51.5-12.4C48.3,235.6,47.5,244.4,60,250.7z M140,97.3c-86.9,195.1-101.6,222.9,5.9,0c0,0-34.1,76.6-34.2,76.6
		c2.7,3.7,12.6,16.2,16.2,26.8c23.5,68.8-79.3,110-103.9,45.2C6.6,200.5,57.7,164.7,87.4,184l9.4-15.7
		c-13.1-23.1-2.2-42.2,13.8-48.2c21.6-46.6,19.4-41.7,18.9-42.4c-7.3-8.9-1.6-9.3,2.5-13.4l-3.4-1.7c-4.6,5.7-8.8,1-5.3-5.5
		s9.5-5.8,7.6,1.1l4.3,2.2c2.7-3.9,4.2-8.5,4.5-13.2c-0.1,0-5-2.5-5-2.5c-4.6,5.6-8.8,1.2-5.3-5.5s9.5-5.7,7.6,1.1
		c4.3,2.1-0.8,3,10.6-12.5l-3.7-2.1c-1.8,1.9-4,2.7-5.3,1.9c-4.2-2.6,2.9-14.3,7.1-11.7c1.4,0.8,1.6,3,0.8,5.5l3.9,2.3
		c2.2-3.3,2.2-4.4,3.1-5.3c1.6-1.9,11.6-6.3,21.9-1.7c10.1,4.7,17.9,19.7,9.6,21.5c-2.4,0.5-4.8-1-5.3-3.4c0,0,0,0,0,0
		c-1.7-7.7-9.3-12.6-17-10.9c-0.9,0.2-1.8,0.5-2.6,0.8c-3.5,6.6-8.6,12-11.7,17.9c1,11.3-3.5,22.3-12.1,29.6
		c5.4,6.9,5.2,1.2-19.6,55.5c-11.6,2.2-22.2,16.4-13.6,33.1C224.5-90.7-68.2,529.4,140,97.3z M85,194.1c0.1,0.1,0.2,0.2,0.3,0.3
		C85.2,194.3,85.1,194.1,85,194.1z M86,195c0.1,0.1,0.2,0.2,0.3,0.3L86,195z M95.2,191.1c0.1,0.1,0.1,0.2,0.2,0.2
		C95.1,191.3,95.1,191.2,95.2,191.1L95.2,191.1z M131.9,136.8c0-0.1,1.3,7.7-6,10.9c-5.9,2-3.8,10.9,2.9,8.6
		c10.1-3.8,14-13.4,11.6-24.1S178,36,131.9,136.8L131.9,136.8z"/>
	<path class="st0" d="M232.5,128.5h-16.3v45.2h-8.5v-45.2h-16.3v-7.1h41.1V128.5z"/>
	<path class="st0" d="M283,121.4v52.3h-8.5v-23.3h-26.2v23.3h-8.5v-52.3h8.5v22.9h26.2v-22.9H283z"/>
	<path class="st0" d="M328.1,166.8v6.9h-32.6v-52.3h32.6v6.9H304V144h19.2v6.6H304v16.1H328.1z"/>
	<path class="st0" d="M391.7,162c0.5,0,0.9,0.2,1.2,0.6l3.4,3.7c-2.1,2.6-4.8,4.6-7.8,5.9c-3.5,1.5-7.3,2.2-11.1,2.1
		c-3.6,0-7.1-0.6-10.4-2c-3-1.3-5.7-3.1-7.9-5.5c-2.2-2.4-3.9-5.3-5-8.4c-1.2-3.5-1.8-7.1-1.8-10.8c0-3.7,0.6-7.3,1.9-10.8
		c1.2-3.1,3-6,5.3-8.4c2.3-2.4,5.1-4.3,8.1-5.5c3.3-1.4,6.9-2,10.4-2c3.4-0.1,6.8,0.6,10,1.8c2.8,1.2,5.3,2.8,7.5,4.9l-2.8,4
		c-0.2,0.3-0.4,0.5-0.7,0.7c-0.3,0.2-0.7,0.3-1.1,0.3c-0.6-0.1-1.2-0.3-1.6-0.7c-0.8-0.5-1.5-1-2.4-1.5c-2.8-1.5-5.9-2.3-9-2.2
		c-2.4,0-4.7,0.4-6.9,1.3c-2.1,0.9-3.9,2.2-5.4,3.8c-1.6,1.8-2.8,3.9-3.5,6.1c-0.9,2.6-1.3,5.4-1.2,8.2c0,2.8,0.4,5.6,1.3,8.2
		c0.8,2.3,2,4.3,3.6,6.1c1.5,1.6,3.3,2.9,5.4,3.8c2.1,0.9,4.4,1.3,6.6,1.3c1.3,0,2.6-0.1,3.9-0.2c1.1-0.1,2.2-0.4,3.2-0.8
		c1-0.3,1.9-0.8,2.7-1.3c0.9-0.6,1.8-1.3,2.6-2C390.6,162.2,391.1,162,391.7,162z"/>
	<path class="st0" d="M451.7,147.5c0,3.7-0.6,7.3-1.9,10.7c-1.2,3.1-3,6-5.3,8.4c-2.3,2.4-5.1,4.3-8.2,5.5c-6.9,2.7-14.5,2.7-21.3,0
		c-6.3-2.5-11.2-7.6-13.6-14c-2.5-6.9-2.5-14.5,0-21.4c1.2-3.1,3-6,5.3-8.4c2.3-2.4,5.2-4.3,8.3-5.6c6.9-2.7,14.5-2.7,21.3,0
		c3.1,1.3,5.9,3.2,8.2,5.6c2.3,2.4,4.1,5.3,5.3,8.4C451.1,140.2,451.7,143.9,451.7,147.5z M443,147.5c0-2.7-0.4-5.5-1.2-8.1
		c-0.7-2.3-1.9-4.3-3.5-6.1c-1.5-1.7-3.4-3-5.5-3.9c-4.7-1.8-9.8-1.8-14.5,0c-2.1,0.9-4,2.2-5.5,3.9c-1.6,1.8-2.8,3.8-3.5,6.1
		c-1.6,5.3-1.6,10.9,0,16.2c0.7,2.2,1.9,4.3,3.5,6.1c1.5,1.7,3.4,3,5.5,3.8c4.7,1.8,9.8,1.8,14.5,0c2.1-0.8,4-2.1,5.5-3.8
		c1.6-1.8,2.8-3.8,3.5-6.1C442.6,153,443,150.3,443,147.5z"/>
	<path class="st0" d="M504.2,121.4v52.3h-4.3c-0.6,0-1.1-0.1-1.7-0.3c-0.5-0.3-1-0.7-1.3-1.1l-28.7-36.9c0.1,0.7,0.1,1.4,0.2,2.1
		s0,1.3,0,1.9v34.4H461v-52.3h4.4c0.3,0,0.6,0,0.9,0c0.2,0,0.5,0.1,0.7,0.2c0.2,0.1,0.4,0.3,0.6,0.4c0.2,0.2,0.4,0.5,0.6,0.7
		l28.7,37c-0.1-0.8-0.1-1.5-0.2-2.2s0-1.4,0-2v-34.1H504.2z"/>
	<path class="st0" d="M553,162c0.5,0,0.9,0.2,1.2,0.6l3.4,3.7c-2.1,2.6-4.8,4.6-7.8,5.9c-3.5,1.5-7.3,2.2-11.1,2.1
		c-3.6,0-7.1-0.6-10.4-2c-3-1.3-5.7-3.1-7.9-5.5c-2.2-2.4-3.9-5.3-5-8.4c-1.2-3.5-1.8-7.1-1.8-10.8c0-3.7,0.6-7.3,1.9-10.8
		c1.2-3.1,3-6,5.3-8.4c2.3-2.4,5.1-4.3,8.1-5.5c3.3-1.4,6.9-2,10.4-2c3.4-0.1,6.8,0.6,10,1.8c2.8,1.2,5.3,2.8,7.5,4.9l-2.8,4
		c-0.2,0.3-0.4,0.5-0.7,0.7c-0.3,0.2-0.7,0.3-1.1,0.3c-0.6-0.1-1.2-0.3-1.7-0.7c-0.8-0.5-1.5-1-2.4-1.5c-1.1-0.6-2.3-1.1-3.6-1.5
		c-1.8-0.5-3.6-0.7-5.4-0.7c-2.4,0-4.7,0.4-6.9,1.3c-2.1,0.9-3.9,2.2-5.4,3.8c-1.6,1.8-2.8,3.9-3.5,6.1c-0.9,2.6-1.3,5.4-1.2,8.2
		c0,2.8,0.4,5.6,1.3,8.2c0.8,2.3,2,4.3,3.6,6.1c1.5,1.6,3.3,2.9,5.4,3.8c2.1,0.9,4.4,1.3,6.7,1.3c1.3,0,2.6-0.1,3.9-0.2
		c2.1-0.3,4.1-1,5.9-2.1c0.9-0.6,1.8-1.3,2.6-2C552,162.2,552.5,162,553,162z"/>
	<path class="st0" d="M597.5,166.8v6.9h-32.6v-52.3h32.6v6.9h-24.1V144h19.2v6.6h-19.2v16.1H597.5z"/>
	<path class="st0" d="M646.5,173.6h-7.6c-1.3,0.1-2.6-0.6-3.3-1.7l-12.2-17.6c-0.3-0.5-0.8-1-1.3-1.3c-0.7-0.3-1.4-0.4-2.2-0.4h-4.7
		v21.1h-8.5v-52.3h15.4c3-0.1,6,0.3,8.9,1c2.2,0.6,4.3,1.6,6.1,3c1.5,1.2,2.8,2.8,3.5,4.7c0.8,1.9,1.2,4,1.1,6.1
		c0,1.7-0.3,3.4-0.8,5.1c-0.5,1.6-1.3,3-2.4,4.3c-1.1,1.3-2.3,2.4-3.8,3.3c-1.6,1-3.3,1.7-5.1,2.2c1.1,0.7,2,1.6,2.7,2.6
		L646.5,173.6z M621.9,146.4c1.7,0,3.4-0.2,5.1-0.7c1.3-0.4,2.6-1.1,3.6-2c0.9-0.8,1.7-1.8,2.2-3c0.5-1.2,0.7-2.6,0.7-3.9
		c0.2-2.5-0.9-4.9-2.8-6.5c-1.9-1.5-4.7-2.2-8.6-2.2h-6.9v18.4L621.9,146.4z"/>
	<path class="st0" d="M687.3,128.5H671v45.2h-8.5v-45.2h-16.4v-7.1h41.1V128.5z"/>
	<path class="st0" d="M377.3,205.5c-0.2,0.4-0.5,0.7-0.8,1c-0.3,0.2-0.7,0.3-1.1,0.3c-0.6,0-1.1-0.2-1.5-0.6
		c-0.6-0.4-1.3-0.8-2.1-1.3c-1-0.5-2-1-3-1.3c-2.6-0.8-5.3-0.8-7.9-0.1c-1,0.3-2,0.8-2.8,1.5c-0.7,0.6-1.3,1.4-1.7,2.3
		c-0.4,0.9-0.6,1.9-0.6,2.9c0,1.2,0.3,2.4,1,3.3c0.8,0.9,1.7,1.7,2.8,2.3c1.3,0.7,2.6,1.2,3.9,1.6c1.5,0.5,3,1,4.5,1.5
		c1.5,0.5,3,1.1,4.5,1.8c1.4,0.7,2.8,1.5,3.9,2.6c1.2,1.1,2.1,2.4,2.8,3.8c0.7,1.7,1.1,3.6,1,5.5c0,2.2-0.4,4.4-1.2,6.5
		c-0.8,2-2,3.8-3.5,5.3c-1.6,1.6-3.5,2.8-5.6,3.6c-2.4,0.9-5,1.4-7.6,1.3c-1.6,0-3.3-0.2-4.9-0.5c-1.6-0.3-3.1-0.8-4.5-1.4
		c-1.4-0.6-2.8-1.3-4-2.2c-1.2-0.8-2.4-1.8-3.4-2.8l2.5-4.1c0.2-0.3,0.5-0.6,0.8-0.8c0.3-0.2,0.7-0.3,1.1-0.3
		c0.7,0.1,1.3,0.3,1.9,0.8c0.7,0.5,1.5,1.1,2.5,1.7c1.1,0.7,2.3,1.3,3.5,1.7c1.6,0.6,3.2,0.8,4.9,0.8c3.1,0,5.4-0.8,7.1-2.2
		c1.7-1.6,2.6-3.9,2.5-6.2c0.1-1.3-0.3-2.5-1-3.6c-0.7-1-1.7-1.8-2.8-2.3c-1.3-0.7-2.6-1.2-3.9-1.6c-1.5-0.4-3-0.9-4.5-1.4
		c-1.5-0.5-3-1.1-4.5-1.7c-1.4-0.6-2.8-1.5-3.9-2.6c-1.2-1.1-2.1-2.5-2.8-4c-0.8-1.9-1.1-3.9-1.1-5.9c0-3.8,1.6-7.5,4.3-10.2
		c1.5-1.4,3.3-2.5,5.2-3.3c2.3-0.9,4.7-1.3,7.1-1.2c2.8,0,5.6,0.5,8.3,1.4c2.4,0.9,4.6,2.2,6.5,4L377.3,205.5z"/>
	<path class="st0" d="M432.3,248.8h-6.6c-0.7,0-1.3-0.2-1.8-0.6c-0.5-0.4-0.8-0.9-1-1.4l-4.4-11.5H396l-4.4,11.5
		c-0.2,0.5-0.6,1-1,1.3c-0.5,0.4-1.2,0.6-1.8,0.6h-6.6l20.8-52.3h8.6L432.3,248.8z M416.2,229.2l-7.2-19.1c-0.7-1.8-1.3-3.7-1.8-5.6
		c-0.3,1.1-0.6,2.2-0.9,3.1s-0.6,1.8-0.9,2.5l-7.2,19.1H416.2z"/>
	<path class="st0" d="M479.7,223.1v20.7c-5.3,3.8-11.6,5.8-18.1,5.6c-3.9,0-7.8-0.6-11.5-2c-3.3-1.2-6.3-3.1-8.8-5.5
		c-2.4-2.4-4.3-5.3-5.6-8.4c-1.3-3.4-2-7.1-2-10.8c0-3.7,0.6-7.4,1.9-10.8c1.2-3.2,3-6,5.4-8.4c2.4-2.4,5.3-4.3,8.5-5.5
		c3.6-1.3,7.4-2,11.2-1.9c2,0,3.9,0.2,5.9,0.5c1.7,0.3,3.4,0.8,5,1.4c1.5,0.6,2.9,1.3,4.3,2.1c1.3,0.8,2.5,1.7,3.6,2.8l-2.4,3.9
		c-0.3,0.6-0.9,1-1.5,1.1c-0.7,0.1-1.4,0-2-0.4l-2.2-1.3c-0.9-0.5-1.8-0.9-2.7-1.3c-1.1-0.4-2.3-0.8-3.5-1c-1.6-0.3-3.1-0.4-4.7-0.4
		c-2.5,0-5.1,0.4-7.4,1.4c-2.2,0.9-4.1,2.2-5.7,3.9c-1.6,1.8-2.9,3.8-3.6,6.1c-1.7,5.3-1.7,11.1,0.1,16.4c0.8,2.3,2.1,4.5,3.8,6.2
		c1.7,1.7,3.7,3.1,6,3.9c4.4,1.5,9.1,1.8,13.6,0.6c1.7-0.5,3.4-1.1,5-1.9v-10.4h-7.3c-0.5,0-1-0.1-1.3-0.5c-0.3-0.3-0.5-0.7-0.5-1.2
		v-4.8H479.7z"/>
	<path class="st0" d="M533,248.8h-6.6c-0.7,0-1.3-0.2-1.8-0.6c-0.5-0.4-0.8-0.9-1-1.4l-4.3-11.5h-22.6l-4.4,11.5
		c-0.2,0.5-0.6,1-1,1.3c-0.5,0.4-1.2,0.6-1.8,0.6h-6.6l20.7-52.3h8.6L533,248.8z M516.9,229.2l-7.2-19.1c-0.7-1.8-1.3-3.7-1.8-5.6
		c-0.3,1.1-0.6,2.2-0.9,3.1s-0.6,1.8-0.9,2.5l-7.2,19.1H516.9z"/>
</g>
</svg>
