<svg xmlns="http://www.w3.org/2000/svg" viewBox="0 0 707.74 292.86"><defs><style>.cls-1{fill:#272a31;}</style></defs><g id="Layer_1" data-name="Layer 1"><path class="cls-1" d="M60,250.74c42.82-88.93,39.07-78.31,36.81-82.38,0,0-25.92,53.86-25.9,53.83-6-3.62,1.51-17,8.78-22.8l3.37-6.93c-22-14.82-65.2,12.36-50.2,50.42,22.76,57.92,123.41,9.61,76.41-56.11-11.27,29.61-7,17.35-8.79,27.56-1.11,6.3-6,17.26-11.74,15,0,0,20.54-42.59,20.53-42.56-3.12-4.31,3.43-12.83-35.21,67.28,15.72-.12,19.26-10.48,22.18-6.93a2.08,2.08,0,0,1-.26,2.95c-27.08,23-58.3-8.45-51.54-12.36C48.32,235.57,47.5,244.37,60,250.74ZM140,97.31c-86.93,195.11-101.59,222.92,5.89,0,0,0-34.14,76.58-34.17,76.58,2.67,3.7,12.59,16.24,16.18,26.84,23.54,68.75-79.27,110-103.91,45.2C6.59,200.49,57.7,164.66,87.4,184l9.41-15.67c-13.13-23.15-2.25-42.2,13.8-48.25C132.18,73.5,130,78.42,129.53,77.66c-7.27-8.9-1.59-9.27,2.54-13.4l-3.37-1.65c-4.64,5.66-8.84,1-5.27-5.54s9.45-5.75,7.6,1.09l4.34,2.17a26,26,0,0,0,4.5-13.18c-.09,0-5-2.5-5-2.49-4.63,5.61-8.84,1.18-5.33-5.53s9.49-5.68,7.65,1.09c4.29,2.14-.84,3,10.65-12.52l-3.67-2.12c-1.81,1.92-4,2.74-5.32,1.92-4.23-2.62,2.92-14.3,7.13-11.69,1.35.83,1.55,3,.78,5.48l3.93,2.28c2.17-3.33,2.19-4.42,3.1-5.33,1.6-1.87,11.55-6.32,21.92-1.66,10.05,4.67,17.87,19.72,9.61,21.52A4.46,4.46,0,0,1,180,34.68,14.27,14.27,0,0,0,160.4,24.6c-3.47,6.62-8.62,12-11.69,17.94a35,35,0,0,1-12.1,29.63C142,79.1,141.8,73.39,117,127.66c-11.57,2.17-22.2,16.4-13.6,33.1C224.46-90.71-68.21,529.39,140,97.31Zm-55,96.8a1.19,1.19,0,0,0,.31.26C85.16,194.28,85.05,194.11,85,194.11ZM86,195a1.78,1.78,0,0,1,.31.26S86,195,86,195Zm9.15-3.87a1.1,1.1,0,0,0,.21.25C95.14,191.34,95.13,191.17,95.1,191.17Zm36.71-54.35c0-.06,1.29,7.7-6,10.91-5.89,2-3.83,10.86,2.89,8.58,10.14-3.81,14-13.37,11.59-24.15S178,36,131.81,136.82Z"/><path class="cls-1" d="M232.53,128.47h-16.3v45.18h-8.46V128.47H191.44v-7.08h41.09Z"/><path class="cls-1" d="M283.05,121.39v52.26h-8.49V150.39H248.32v23.26h-8.53V121.39h8.53v22.86h26.24V121.39Z"/><path class="cls-1" d="M328.13,166.79l0,6.86H295.5V121.39h32.59v6.86H304V144h19.23v6.64H304v16.15Z"/><path class="cls-1" d="M391.68,162a1.57,1.57,0,0,1,1.2.55l3.37,3.66a21.41,21.41,0,0,1-7.84,5.94,27,27,0,0,1-11.1,2.08,26.12,26.12,0,0,1-10.37-2,22.85,22.85,0,0,1-7.89-5.52,24.53,24.53,0,0,1-5-8.44,31.78,31.78,0,0,1-1.76-10.78,30.31,30.31,0,0,1,1.87-10.8,24.69,24.69,0,0,1,5.27-8.45,23.49,23.49,0,0,1,8.13-5.5,26.92,26.92,0,0,1,10.43-2,25.52,25.52,0,0,1,10,1.83,24.75,24.75,0,0,1,7.53,4.88l-2.79,4a3.47,3.47,0,0,1-.69.69,1.85,1.85,0,0,1-1.09.29,3,3,0,0,1-1.65-.67,25.77,25.77,0,0,0-2.36-1.49,17.41,17.41,0,0,0-9-2.16,17.44,17.44,0,0,0-6.86,1.31,14.81,14.81,0,0,0-5.37,3.81,17.62,17.62,0,0,0-3.5,6.1,24.8,24.8,0,0,0-1.25,8.16,24.12,24.12,0,0,0,1.3,8.22,17.93,17.93,0,0,0,3.6,6.1,15.23,15.23,0,0,0,5.37,3.79,16.88,16.88,0,0,0,6.64,1.31,28.52,28.52,0,0,0,3.9-.24,15.11,15.11,0,0,0,3.18-.76,14.73,14.73,0,0,0,2.74-1.32,18.38,18.38,0,0,0,2.56-2A2.17,2.17,0,0,1,391.68,162Z"/><path class="cls-1" d="M451.68,147.52a29.54,29.54,0,0,1-1.89,10.71,24.8,24.8,0,0,1-5.32,8.44,24.25,24.25,0,0,1-8.24,5.53,29.46,29.46,0,0,1-21.34,0,24,24,0,0,1-13.59-14,31.29,31.29,0,0,1,0-21.42,24.81,24.81,0,0,1,5.33-8.45,24.5,24.5,0,0,1,8.26-5.56,29.6,29.6,0,0,1,21.34,0,24.32,24.32,0,0,1,8.24,5.56,24.94,24.94,0,0,1,5.32,8.45A29.54,29.54,0,0,1,451.68,147.52Zm-8.68,0a25.14,25.14,0,0,0-1.21-8.09,17.29,17.29,0,0,0-3.49-6.1,15.16,15.16,0,0,0-5.5-3.85,20.23,20.23,0,0,0-14.48,0,15.49,15.49,0,0,0-5.52,3.85,17.34,17.34,0,0,0-3.52,6.1,27.35,27.35,0,0,0,0,16.22,17.16,17.16,0,0,0,3.52,6.08,15.27,15.27,0,0,0,5.52,3.81,20.37,20.37,0,0,0,14.48,0,14.94,14.94,0,0,0,5.5-3.81,17.11,17.11,0,0,0,3.49-6.08A25.26,25.26,0,0,0,443,147.52Z"/><path class="cls-1" d="M504.23,121.39v52.26h-4.32a3.71,3.71,0,0,1-1.67-.34,3.89,3.89,0,0,1-1.3-1.14l-28.71-36.88c.07.7.12,1.4.16,2.09s.05,1.32.05,1.9v34.37H461V121.39h4.42a7.88,7.88,0,0,1,.93,0,3.23,3.23,0,0,1,.71.2,1.93,1.93,0,0,1,.61.44,6,6,0,0,1,.62.72L497,159.72c-.07-.75-.13-1.49-.17-2.22s0-1.4,0-2V121.39Z"/><path class="cls-1" d="M553,162a1.57,1.57,0,0,1,1.2.55l3.38,3.66a21.5,21.5,0,0,1-7.84,5.94,27,27,0,0,1-11.11,2.08,26.07,26.07,0,0,1-10.36-2,22.79,22.79,0,0,1-7.9-5.52,24.5,24.5,0,0,1-5-8.44,31.54,31.54,0,0,1-1.76-10.78,30.09,30.09,0,0,1,1.87-10.8,24.67,24.67,0,0,1,5.26-8.45,23.49,23.49,0,0,1,8.13-5.5,27,27,0,0,1,10.43-2,25.52,25.52,0,0,1,10,1.83,24.68,24.68,0,0,1,7.54,4.88l-2.8,4a3,3,0,0,1-.69.69,1.85,1.85,0,0,1-1.09.29,3,3,0,0,1-1.65-.67,24.45,24.45,0,0,0-2.36-1.49,17.91,17.91,0,0,0-3.59-1.49,18.36,18.36,0,0,0-5.39-.67,17.44,17.44,0,0,0-6.86,1.31,14.81,14.81,0,0,0-5.37,3.81,17.79,17.79,0,0,0-3.51,6.1,24.8,24.8,0,0,0-1.25,8.16,24.11,24.11,0,0,0,1.31,8.22,17.91,17.91,0,0,0,3.59,6.1,15.41,15.41,0,0,0,5.37,3.79,16.89,16.89,0,0,0,6.65,1.31,28.52,28.52,0,0,0,3.9-.24,14.78,14.78,0,0,0,5.91-2.08,18.38,18.38,0,0,0,2.56-2A2.19,2.19,0,0,1,553,162Z"/><path class="cls-1" d="M597.54,166.79l0,6.86h-32.6V121.39h32.6v6.86H573.44V144h19.24v6.64H573.44v16.15Z"/><path class="cls-1" d="M646.51,173.65h-7.59a3.51,3.51,0,0,1-3.27-1.74l-12.19-17.6a4,4,0,0,0-1.34-1.31,4.75,4.75,0,0,0-2.18-.4h-4.72v21.05h-8.49V121.39h15.39a32.94,32.94,0,0,1,8.87,1,16.84,16.84,0,0,1,6.12,3,11.91,11.91,0,0,1,3.54,4.66,15.54,15.54,0,0,1,1.14,6.06,15.25,15.25,0,0,1-.82,5.08,14.15,14.15,0,0,1-2.36,4.29,15.1,15.1,0,0,1-3.79,3.33,19,19,0,0,1-5.12,2.22,8.48,8.48,0,0,1,2.69,2.65ZM621.9,146.43a16.23,16.23,0,0,0,5.08-.71,10.34,10.34,0,0,0,3.63-2,8.16,8.16,0,0,0,2.18-3,10.27,10.27,0,0,0,.72-3.91,7.84,7.84,0,0,0-2.83-6.53q-2.83-2.25-8.56-2.25h-6.9v18.4Z"/><path class="cls-1" d="M687.27,128.47H671v45.18h-8.46V128.47H646.18v-7.08h41.09Z"/><path class="cls-1" d="M377.29,205.51a3.14,3.14,0,0,1-.84,1,1.8,1.8,0,0,1-1.09.31,2.8,2.8,0,0,1-1.54-.58q-.85-.57-2.1-1.29a18.83,18.83,0,0,0-3-1.3,14,14,0,0,0-7.9-.06,8,8,0,0,0-2.77,1.53,6.33,6.33,0,0,0-1.69,2.3,7.27,7.27,0,0,0-.56,2.89,5.17,5.17,0,0,0,1.05,3.32,9.05,9.05,0,0,0,2.78,2.27,22.33,22.33,0,0,0,3.93,1.65q2.22.7,4.52,1.5c1.54.54,3.05,1.14,4.52,1.82a15.43,15.43,0,0,1,3.94,2.58,12,12,0,0,1,2.78,3.81,12.88,12.88,0,0,1,1.05,5.48,17.66,17.66,0,0,1-1.2,6.53,15.44,15.44,0,0,1-3.46,5.32,16.26,16.26,0,0,1-5.59,3.57,20.61,20.61,0,0,1-7.57,1.31,23.83,23.83,0,0,1-4.88-.49,25.72,25.72,0,0,1-4.54-1.38,22.42,22.42,0,0,1-4.05-2.16,20.28,20.28,0,0,1-3.37-2.83l2.47-4.06a2.27,2.27,0,0,1,.83-.8,2.16,2.16,0,0,1,1.13-.29,3.17,3.17,0,0,1,1.85.78c.67.52,1.49,1.09,2.45,1.7a18.59,18.59,0,0,0,3.46,1.71,13.63,13.63,0,0,0,4.87.78q4.6,0,7.13-2.25a7.9,7.9,0,0,0,2.52-6.21,5.86,5.86,0,0,0-1-3.61,8.56,8.56,0,0,0-2.78-2.34,20.1,20.1,0,0,0-3.94-1.6c-1.47-.43-3-.9-4.5-1.4a42.59,42.59,0,0,1-4.5-1.74,14.23,14.23,0,0,1-3.94-2.61,12.13,12.13,0,0,1-2.77-4,14.75,14.75,0,0,1-1.06-5.94,14.13,14.13,0,0,1,4.34-10.18,15.79,15.79,0,0,1,5.25-3.28,19.06,19.06,0,0,1,7.11-1.24,23.37,23.37,0,0,1,8.26,1.42,18.88,18.88,0,0,1,6.48,4Z"/><path class="cls-1" d="M432.28,248.85h-6.57a2.82,2.82,0,0,1-1.82-.56,3.65,3.65,0,0,1-1.05-1.4l-4.36-11.54H396l-4.36,11.54a3.47,3.47,0,0,1-1,1.34,2.73,2.73,0,0,1-1.82.62h-6.57L403,196.58h8.6Zm-16.08-19.6L409,210.16a54.19,54.19,0,0,1-1.78-5.63c-.26,1.14-.56,2.19-.87,3.14s-.6,1.8-.87,2.52l-7.19,19.06Z"/><path class="cls-1" d="M479.71,223.12V243.8a30.14,30.14,0,0,1-18.14,5.63,31.69,31.69,0,0,1-11.49-2,25.62,25.62,0,0,1-8.77-5.51,24.28,24.28,0,0,1-5.59-8.44,28.92,28.92,0,0,1-2-10.78,30,30,0,0,1,1.89-10.84,23.9,23.9,0,0,1,5.41-8.45,24.4,24.4,0,0,1,8.49-5.49A30.63,30.63,0,0,1,460.73,196a33.46,33.46,0,0,1,5.86.49,29.31,29.31,0,0,1,5,1.36A24,24,0,0,1,475.9,200a23.5,23.5,0,0,1,3.6,2.76l-2.44,3.88a2.41,2.41,0,0,1-1.48,1.13,2.55,2.55,0,0,1-2-.44L471.38,206a20.09,20.09,0,0,0-2.7-1.28,19.54,19.54,0,0,0-3.52-1,24.89,24.89,0,0,0-4.72-.39A19.48,19.48,0,0,0,453,204.7a15.88,15.88,0,0,0-5.68,3.88,17.32,17.32,0,0,0-3.63,6.11,26.29,26.29,0,0,0,.08,16.39,17.37,17.37,0,0,0,3.81,6.25,16.3,16.3,0,0,0,6,3.9,23.82,23.82,0,0,0,13.57.65,26.72,26.72,0,0,0,5-1.92V229.58h-7.3a1.79,1.79,0,0,1-1.31-.46,1.57,1.57,0,0,1-.47-1.18v-4.82Z"/><path class="cls-1" d="M533,248.85h-6.57a2.82,2.82,0,0,1-1.82-.56,3.65,3.65,0,0,1-1.05-1.4l-4.35-11.54H496.66l-4.35,11.54a3.5,3.5,0,0,1-1,1.34,2.7,2.7,0,0,1-1.81.62h-6.57l20.72-52.27h8.6Zm-16.08-19.6-7.19-19.09a52.11,52.11,0,0,1-1.77-5.63c-.27,1.14-.56,2.19-.88,3.14s-.6,1.8-.87,2.52L499,229.25Z"/></g></svg>